# xmcd
#
# Track frame offsets:
#	182
#	8907
#	23082
#	34482
#	59007
#	73032
#	83007
#	93807
#	105132
#	114957
#	123882
#	134082
#	144207
#	160485
#	171585
#	181480
#
# Disc length: 2730 seconds
#
# Revision: 1
# Processed by: cddbd v1.5.2PL0 Copyright (c) Steve Scherf et al.
# Submitted via: audiograbber 1.83.01
#
DISCID=d50aa810
DTITLE=Veselka - Dva kovari v meste
DYEAR=1993
DGENRE=Brass
TTITLE0=Dva kovari v meste
TTITLE1=Cert aby vzal hospodskyho
TTITLE2=Cestar
TTITLE3=Devatero remesel
TTITLE4=Svadlenky
TTITLE5=Nehori
TTITLE6=Jede formanek po svete
TTITLE7=Soferi, soferi
TTITLE8=Zednicka polka
TTITLE9=Staveli tesari
TTITLE10=Vzpominka na hezke chvile
TTITLE11=Andulicko mila
TTITLE12=Pro rybare
TTITLE13=Ukovej kovari podovky
TTITLE14=Myslivec pripiji levou
TTITLE15=Smes hornickych pisni
EXTD=
EXTT0=
EXTT1=
EXTT2=
EXTT3=
EXTT4=
EXTT5=
EXTT6=
EXTT7=
EXTT8=
EXTT9=
EXTT10=
EXTT11=
EXTT12=
EXTT13=
EXTT14=
EXTT15=
PLAYORDER=
